ply
format ascii 1.0
comment Created by Blender 2.90.1 - www.blender.org
element vertex 672
property float x
property float y
property float z
element face 641
property list uchar uint vertex_indices
end_header
0.000000 0.700000 0.000000
0.136562 0.686550 0.000000
0.267877 0.646716 0.000000
0.388898 0.582029 0.000000
0.494974 0.494975 0.000000
0.582028 0.388900 0.000000
0.646715 0.267879 0.000000
0.686550 0.136564 0.000000
0.700000 0.000001 0.000000
0.686550 -0.136563 0.000000
0.646716 -0.267878 0.000000
0.582029 -0.388899 0.000000
0.494975 -0.494974 0.000000
0.388900 -0.582029 0.000000
0.267879 -0.646716 0.000000
0.136564 -0.686550 0.000000
0.000000 -0.700000 0.000000
-0.136563 -0.686550 0.000000
-0.267878 -0.646716 0.000000
-0.388899 -0.582029 0.000000
-0.494975 -0.494975 0.000000
-0.582029 -0.388899 0.000000
-0.646716 -0.267878 0.000000
-0.686550 -0.136563 0.000000
-0.700000 0.000000 0.000000
-0.686550 0.136563 0.000000
-0.646716 0.267878 0.000000
-0.582029 0.388899 0.000000
-0.494975 0.494975 0.000000
-0.388899 0.582029 0.000000
-0.267878 0.646716 0.000000
-0.136563 0.686550 0.000000
-0.267878 0.646716 0.100000
-0.388899 0.582029 0.100000
-0.433869 0.649330 0.200000
-0.298854 0.721497 0.200000
0.646716 -0.267878 0.100000
0.582029 -0.388899 0.100000
-0.686550 -0.136563 0.100000
-0.700000 0.000000 0.100000
0.686550 -0.136563 0.100000
-0.646716 -0.267878 0.100000
0.700000 0.000001 0.100000
-0.582029 -0.388899 0.100000
0.686550 0.136564 0.100000
-0.494975 -0.494975 0.100000
0.646715 0.267879 0.100000
-0.388899 -0.582029 0.100000
0.582028 0.388900 0.100000
-0.267878 -0.646716 0.100000
-0.136563 0.686550 0.100000
0.000000 0.700000 0.100000
0.494974 0.494975 0.100000
-0.136563 -0.686550 0.100000
0.388898 0.582029 0.100000
0.000000 -0.700000 0.100000
0.267877 0.646716 0.100000
0.136564 -0.686550 0.100000
-0.494975 0.494975 0.100000
0.136562 0.686550 0.100000
0.267879 -0.646716 0.100000
-0.582029 0.388899 0.100000
0.388900 -0.582029 0.100000
-0.646716 0.267878 0.100000
0.494975 -0.494974 0.100000
-0.686550 0.136563 0.100000
-0.649330 0.433868 0.200000
-0.721497 0.298854 0.200000
-0.807509 0.334481 0.300000
-0.726739 0.485591 0.300000
0.298853 0.721497 0.200000
0.433868 0.649331 0.200000
0.152355 -0.765937 0.200000
0.000000 -0.780943 0.200000
-0.552210 0.552210 0.200000
0.152353 0.765937 0.200000
0.298854 -0.721497 0.200000
0.000000 0.780943 0.200000
0.433869 -0.649330 0.200000
0.552210 -0.552210 0.200000
-0.765937 0.152354 0.200000
0.649330 -0.433868 0.200000
-0.780943 0.000000 0.200000
0.721497 -0.298853 0.200000
-0.765937 -0.152354 0.200000
0.765937 -0.152354 0.200000
-0.721497 -0.298854 0.200000
0.780943 0.000001 0.200000
-0.649330 -0.433868 0.200000
0.765937 0.152355 0.200000
-0.552210 -0.552210 0.200000
0.721497 0.298855 0.200000
-0.433868 -0.649330 0.200000
0.649330 0.433869 0.200000
-0.298854 -0.721497 0.200000
-0.152354 0.765937 0.200000
0.552209 0.552211 0.200000
-0.152354 -0.765937 0.200000
-0.874042 0.000000 0.300000
-0.857247 -0.170517 0.300000
-0.857247 -0.170517 0.300000
-0.874042 0.000000 0.300000
0.618041 -0.618040 0.300000
0.485592 -0.726739 0.300000
-0.857247 0.170517 0.300000
0.726739 -0.485591 0.300000
0.807509 -0.334481 0.300000
0.857247 -0.170516 0.300000
-0.807509 -0.334481 0.300000
0.874042 0.000001 0.300000
-0.726739 -0.485592 0.300000
0.857247 0.170518 0.300000
-0.618041 -0.618041 0.300000
0.807509 0.334482 0.300000
-0.485591 -0.726739 0.300000
0.726738 0.485592 0.300000
-0.334481 -0.807509 0.300000
-0.170517 0.857247 0.300000
0.000000 0.874042 0.300000
0.618040 0.618041 0.300000
-0.170517 -0.857247 0.300000
-0.334481 0.807509 0.300000
0.485591 0.726740 0.300000
0.000000 -0.874042 0.300000
-0.485592 0.726739 0.300000
0.334480 0.807510 0.300000
0.170517 -0.857247 0.300000
-0.618041 0.618041 0.300000
0.170516 0.857247 0.300000
0.334482 -0.807509 0.300000
-0.726739 -0.485592 0.300000
-0.618041 -0.618041 0.300000
-0.665163 -0.665163 0.400000
-0.782149 -0.522615 0.400000
0.857247 -0.170516 0.300000
0.807509 -0.334481 0.300000
-0.807509 -0.334481 0.300000
0.874042 0.000001 0.300000
0.857247 0.170518 0.300000
0.807509 0.334482 0.300000
-0.485591 -0.726739 0.300000
0.726738 0.485592 0.300000
-0.334481 -0.807509 0.300000
-0.170517 0.857247 0.300000
0.000000 0.874042 0.300000
0.618040 0.618041 0.300000
-0.170517 -0.857247 0.300000
-0.334481 0.807509 0.300000
0.485591 0.726740 0.300000
0.000000 -0.874042 0.300000
-0.485592 0.726739 0.300000
0.334480 0.807510 0.300000
0.170517 -0.857247 0.300000
-0.618041 0.618041 0.300000
0.170516 0.857247 0.300000
0.334482 -0.807509 0.300000
-0.726739 0.485591 0.300000
0.485592 -0.726739 0.300000
-0.807509 0.334481 0.300000
0.618041 -0.618040 0.300000
-0.857247 0.170517 0.300000
0.726739 -0.485591 0.300000
-0.359984 -0.869078 0.400000
-0.183518 -0.922608 0.400000
-0.193308 -0.971824 0.500000
-0.379187 -0.915439 0.500000
0.869077 0.359985 0.400000
0.922608 0.183519 0.400000
-0.522615 -0.782149 0.400000
0.782149 0.522616 0.400000
-0.183518 0.922608 0.400000
0.000000 0.940683 0.400000
0.665162 0.665164 0.400000
-0.359984 0.869078 0.400000
0.522614 0.782150 0.400000
0.000000 -0.940683 0.400000
-0.522615 0.782149 0.400000
0.359983 0.869078 0.400000
0.183519 -0.922608 0.400000
-0.665163 0.665163 0.400000
0.183517 0.922608 0.400000
0.359984 -0.869078 0.400000
-0.782149 0.522615 0.400000
0.522616 -0.782149 0.400000
-0.869078 0.359984 0.400000
0.665164 -0.665163 0.400000
-0.922608 0.183518 0.400000
0.782150 -0.522615 0.400000
-0.940683 -0.000000 0.400000
0.869078 -0.359983 0.400000
-0.922608 -0.183518 0.400000
0.922608 -0.183517 0.400000
-0.869078 -0.359984 0.400000
0.940683 0.000001 0.400000
0.193308 -0.971824 0.500000
0.379188 -0.915438 0.500000
0.390762 -0.943382 0.600000
0.199209 -1.001489 0.600000
-0.379187 0.915438 0.500000
-0.193308 0.971824 0.500000
0.550493 0.823874 0.500000
0.700645 0.700647 0.500000
0.000000 -0.990864 0.500000
-0.550494 0.823873 0.500000
0.379186 0.915439 0.500000
-0.700646 0.700646 0.500000
0.193306 0.971825 0.500000
-0.823873 0.550494 0.500000
0.000000 0.990863 0.500000
0.550495 -0.823873 0.500000
-0.915438 0.379187 0.500000
0.700647 -0.700646 0.500000
-0.971824 0.193308 0.500000
0.823873 -0.550494 0.500000
-0.990863 -0.000000 0.500000
0.915439 -0.379186 0.500000
-0.971824 -0.193308 0.500000
0.971825 -0.193307 0.500000
-0.915438 -0.379187 0.500000
0.990864 0.000001 0.500000
-0.823873 -0.550494 0.500000
0.971824 0.193309 0.500000
-0.700646 -0.700646 0.500000
0.915438 0.379188 0.500000
-0.550494 -0.823873 0.500000
0.823872 0.550495 0.500000
0.722034 -0.722033 0.600000
0.849022 -0.567298 0.600000
0.861131 -0.575389 0.700000
0.732332 -0.732331 0.700000
-0.849022 0.567298 0.600000
-0.722033 0.722033 0.600000
0.000000 1.021109 0.600000
0.199207 1.001490 0.600000
0.567299 -0.849021 0.600000
-0.943382 0.390762 0.600000
-1.001489 0.199209 0.600000
-1.021109 -0.000000 0.600000
0.943383 -0.390761 0.600000
-1.001489 -0.199209 0.600000
1.001490 -0.199208 0.600000
-0.943382 -0.390762 0.600000
1.021110 0.000001 0.600000
-0.849022 -0.567298 0.600000
1.001489 0.199210 0.600000
-0.722033 -0.722034 0.600000
0.943382 0.390763 0.600000
-0.567298 -0.849022 0.600000
0.849021 0.567299 0.600000
-0.390762 -0.943382 0.600000
-0.199209 1.001489 0.600000
0.722033 0.722034 0.600000
-0.199208 -1.001489 0.600000
-0.390762 0.943382 0.600000
0.567297 0.849022 0.600000
0.000000 -1.021110 0.600000
-0.567298 0.849021 0.600000
0.390760 0.943383 0.600000
1.015773 -0.202049 0.700000
1.035673 0.000001 0.700000
1.041650 0.000001 0.800000
1.021635 -0.203215 0.800000
-1.035673 -0.000000 0.700000
-1.015773 0.202050 0.700000
0.956838 -0.396334 0.700000
-1.015773 -0.202050 0.700000
-0.956837 -0.396335 0.700000
-0.861131 -0.575389 0.700000
1.015773 0.202051 0.700000
-0.732332 -0.732332 0.700000
0.956837 0.396336 0.700000
-0.575389 -0.861131 0.700000
0.861130 0.575390 0.700000
-0.396335 -0.956838 0.700000
-0.202050 1.015773 0.700000
0.000000 1.035673 0.700000
0.732331 0.732332 0.700000
-0.202050 -1.015773 0.700000
-0.396335 0.956837 0.700000
0.575388 0.861132 0.700000
0.000000 -1.035673 0.700000
-0.575389 0.861131 0.700000
0.396334 0.956838 0.700000
0.202050 -1.015773 0.700000
-0.732332 0.732332 0.700000
0.202048 1.015773 0.700000
0.396336 -0.956837 0.700000
-0.861131 0.575389 0.700000
0.575390 -0.861131 0.700000
-0.956837 0.396335 0.700000
0.962358 0.398623 0.800000
0.866099 0.578711 0.800000
0.866099 0.578711 0.900000
0.962358 0.398623 0.900000
-0.866100 -0.578710 0.800000
-0.962359 -0.398622 0.800000
1.021635 0.203217 0.800000
-0.736558 -0.736558 0.800000
-0.578709 -0.866100 0.800000
-0.398622 -0.962359 0.800000
-0.203216 1.021635 0.800000
0.000000 1.041650 0.800000
0.736557 0.736558 0.800000
-0.203216 -1.021635 0.800000
-0.398622 0.962359 0.800000
0.578708 0.866101 0.800000
0.000000 -1.041650 0.800000
-0.578710 0.866100 0.800000
0.398621 0.962359 0.800000
0.203216 -1.021635 0.800000
-0.736558 0.736557 0.800000
0.203214 1.021635 0.800000
0.398623 -0.962359 0.800000
-0.866100 0.578709 0.800000
0.578710 -0.866100 0.800000
-0.962359 0.398622 0.800000
0.736558 -0.736557 0.800000
-1.021635 0.203216 0.800000
0.866101 -0.578709 0.800000
-1.041650 -0.000000 0.800000
0.962359 -0.398621 0.800000
-1.021635 -0.203216 0.800000
0.578708 0.866101 0.900000
0.398621 0.962359 0.900000
0.398621 0.962359 1.000000
0.578708 0.866101 1.000000
-0.398622 -0.962359 0.900000
-0.578709 -0.866100 0.900000
-0.203216 1.021635 0.900000
0.000000 1.041650 0.900000
0.736557 0.736558 0.900000
-0.203216 -1.021635 0.900000
-0.398622 0.962359 0.900000
0.000000 -1.041650 0.900000
-0.578710 0.866100 0.900000
0.203216 -1.021635 0.900000
-0.736558 0.736557 0.900000
0.203214 1.021635 0.900000
0.398623 -0.962359 0.900000
-0.866100 0.578709 0.900000
0.578710 -0.866100 0.900000
-0.962359 0.398622 0.900000
0.736558 -0.736557 0.900000
-1.021635 0.203216 0.900000
0.866101 -0.578709 0.900000
-1.041650 -0.000000 0.900000
0.962359 -0.398621 0.900000
-1.021635 -0.203216 0.900000
1.021635 -0.203215 0.900000
-0.962359 -0.398622 0.900000
1.041650 0.000001 0.900000
-0.866100 -0.578710 0.900000
1.021635 0.203217 0.900000
-0.736558 -0.736558 0.900000
0.578710 -0.866100 1.000000
0.736558 -0.736557 1.000000
0.724914 -0.724913 1.100000
0.569562 -0.852408 1.100000
0.203216 -1.021635 1.000000
0.000000 -1.041650 1.000000
-0.736558 0.736557 1.000000
-0.578710 0.866100 1.000000
0.203214 1.021635 1.000000
0.398623 -0.962359 1.000000
-0.866100 0.578709 1.000000
0.000000 1.041650 1.000000
-0.962359 0.398622 1.000000
-1.021635 0.203216 1.000000
0.866101 -0.578709 1.000000
-1.041650 -0.000000 1.000000
0.962359 -0.398621 1.000000
-1.021635 -0.203216 1.000000
1.021635 -0.203215 1.000000
-0.962359 -0.398622 1.000000
1.041650 0.000001 1.000000
-0.866100 -0.578710 1.000000
1.021635 0.203217 1.000000
-0.736558 -0.736558 1.000000
0.962358 0.398623 1.000000
-0.578709 -0.866100 1.000000
0.866099 0.578711 1.000000
-0.398622 -0.962359 1.000000
-0.203216 1.021635 1.000000
0.736557 0.736558 1.000000
-0.203216 -1.021635 1.000000
-0.398622 0.962359 1.000000
0.947146 -0.392320 1.100000
1.005484 -0.200002 1.100000
0.904936 -0.180002 1.200000
0.852431 -0.353088 1.200000
-1.005484 0.200003 1.100000
-0.947145 0.392320 1.100000
0.852409 -0.569560 1.100000
-1.025182 -0.000000 1.100000
-1.005484 -0.200003 1.100000
-0.947145 -0.392320 1.100000
1.025183 0.000001 1.100000
-0.852408 -0.569561 1.100000
1.005484 0.200004 1.100000
-0.724914 -0.724914 1.100000
0.947145 0.392321 1.100000
-0.569561 -0.852408 1.100000
0.852408 0.569562 1.100000
-0.392320 -0.947145 1.100000
-0.200003 1.005484 1.100000
0.000000 1.025182 1.100000
0.724913 0.724914 1.100000
-0.200003 -1.005484 1.100000
-0.392320 0.947145 1.100000
0.569560 0.852409 1.100000
0.000000 -1.025183 1.100000
-0.569561 0.852408 1.100000
0.392319 0.947146 1.100000
0.200004 -1.005484 1.100000
-0.724914 0.724913 1.100000
0.200002 1.005484 1.100000
0.392321 -0.947145 1.100000
-0.852408 0.569561 1.100000
0.904935 0.180004 1.200000
0.852430 0.353089 1.200000
0.767187 0.317780 1.300000
0.814442 0.162003 1.300000
-0.852431 -0.353088 1.200000
-0.904935 -0.180003 1.200000
0.922664 0.000001 1.200000
-0.767167 -0.512605 1.200000
-0.652422 -0.652422 1.200000
-0.512605 -0.767167 1.200000
0.767167 0.512606 1.200000
-0.353088 -0.852431 1.200000
-0.180003 0.904935 1.200000
0.000000 0.922664 1.200000
0.652421 0.652423 1.200000
-0.180003 -0.904936 1.200000
-0.353088 0.852431 1.200000
0.512604 0.767168 1.200000
0.000000 -0.922664 1.200000
-0.512605 0.767167 1.200000
0.353087 0.852431 1.200000
0.180003 -0.904936 1.200000
-0.652422 0.652422 1.200000
0.180002 0.904936 1.200000
0.353089 -0.852431 1.200000
-0.767167 0.512605 1.200000
0.512605 -0.767167 1.200000
-0.852431 0.353088 1.200000
0.652423 -0.652422 1.200000
-0.904935 0.180003 1.200000
0.767168 -0.512604 1.200000
-0.922664 0.000000 1.200000
-0.162003 0.814442 1.300000
-0.317779 0.767187 1.300000
-0.286002 0.690469 1.400000
-0.145802 0.732998 1.400000
-0.461344 -0.690451 1.300000
-0.587180 -0.587180 1.300000
0.690450 0.461345 1.300000
-0.317779 -0.767188 1.300000
0.000000 0.830398 1.300000
0.587179 0.587181 1.300000
-0.162002 -0.814442 1.300000
0.461343 0.690451 1.300000
0.000000 -0.830398 1.300000
-0.461344 0.690451 1.300000
0.317778 0.767188 1.300000
0.162003 -0.814442 1.300000
-0.587180 0.587180 1.300000
0.162001 0.814442 1.300000
0.317780 -0.767187 1.300000
-0.690451 0.461344 1.300000
0.461345 -0.690450 1.300000
-0.767188 0.317779 1.300000
0.587180 -0.587180 1.300000
-0.814442 0.162003 1.300000
0.690451 -0.461344 1.300000
-0.830398 0.000000 1.300000
0.767188 -0.317779 1.300000
-0.814442 -0.162003 1.300000
0.814442 -0.162002 1.300000
-0.767188 -0.317779 1.300000
0.830398 0.000001 1.300000
-0.690451 -0.461344 1.300000
-0.528462 0.528462 1.400000
-0.621406 0.415210 1.400000
-0.559265 0.373689 1.500000
-0.475616 0.475616 1.500000
0.415209 0.621406 1.400000
0.528461 0.528463 1.400000
0.000000 -0.747358 1.400000
-0.145802 -0.732998 1.400000
-0.415210 0.621405 1.400000
0.286001 0.690469 1.400000
0.145803 -0.732998 1.400000
0.145801 0.732998 1.400000
0.286002 -0.690469 1.400000
0.000000 0.747358 1.400000
0.415210 -0.621405 1.400000
-0.690469 0.286002 1.400000
0.528462 -0.528462 1.400000
-0.732998 0.145802 1.400000
0.621406 -0.415209 1.400000
-0.747358 0.000000 1.400000
0.690469 -0.286001 1.400000
-0.732998 -0.145802 1.400000
0.732998 -0.145802 1.400000
-0.690469 -0.286001 1.400000
0.747358 0.000001 1.400000
-0.621406 -0.415210 1.400000
0.732998 0.145803 1.400000
-0.528462 -0.528462 1.400000
0.690468 0.286002 1.400000
-0.415210 -0.621405 1.400000
0.621405 0.415211 1.400000
-0.286001 -0.690469 1.400000
-0.659698 0.131222 1.500000
-0.672622 0.000000 1.500000
-0.739884 0.000000 1.600000
-0.725668 0.144344 1.600000
0.000000 0.672622 1.500000
0.131221 0.659698 1.500000
0.373689 -0.559265 1.500000
0.257402 -0.621422 1.500000
-0.621422 0.257401 1.500000
0.475616 -0.475615 1.500000
0.559265 -0.373688 1.500000
0.621422 -0.257401 1.500000
-0.659698 -0.131222 1.500000
0.659698 -0.131222 1.500000
-0.621422 -0.257401 1.500000
0.672622 0.000001 1.500000
-0.559265 -0.373689 1.500000
0.659698 0.131223 1.500000
-0.475616 -0.475616 1.500000
0.621422 0.257402 1.500000
-0.373689 -0.559265 1.500000
0.559264 0.373690 1.500000
-0.257401 -0.621422 1.500000
-0.131222 0.659698 1.500000
0.475615 0.475616 1.500000
-0.131222 -0.659698 1.500000
-0.257401 0.621422 1.500000
0.373688 0.559265 1.500000
0.000000 -0.672622 1.500000
-0.373689 0.559265 1.500000
0.257401 0.621422 1.500000
0.131222 -0.659698 1.500000
-0.683564 -0.283141 1.600000
-0.615191 -0.411058 1.600000
-0.676711 -0.452164 1.700000
-0.751920 -0.311456 1.700000
0.683564 -0.283141 1.600000
0.615192 -0.411057 1.600000
-0.725668 -0.144344 1.600000
0.725668 -0.144344 1.600000
0.739885 0.000001 1.600000
0.725668 0.144345 1.600000
-0.523177 -0.523177 1.600000
0.683564 0.283142 1.600000
-0.411058 -0.615191 1.600000
0.615191 0.411059 1.600000
-0.283141 -0.683564 1.600000
-0.144344 0.725668 1.600000
0.000000 0.739884 1.600000
0.523177 0.523178 1.600000
-0.144344 -0.725668 1.600000
-0.283141 0.683564 1.600000
0.411057 0.615192 1.600000
0.000000 -0.739885 1.600000
-0.411058 0.615191 1.600000
0.283141 0.683564 1.600000
0.144345 -0.725668 1.600000
-0.523177 0.523177 1.600000
0.144343 0.725668 1.600000
0.283142 -0.683564 1.600000
-0.615191 0.411058 1.600000
0.411058 -0.615191 1.600000
-0.683564 0.283142 1.600000
0.523178 -0.523177 1.600000
-0.452163 -0.676711 1.700000
-0.311456 -0.751921 1.700000
-0.342601 -0.827113 1.800000
-0.497380 -0.744382 1.800000
0.798235 0.158780 1.700000
0.813873 0.000001 1.700000
-0.575495 -0.575495 1.700000
0.751920 0.311457 1.700000
0.676710 0.452164 1.700000
-0.158779 0.798234 1.700000
0.000000 0.813873 1.700000
0.575494 0.575496 1.700000
-0.158779 -0.798235 1.700000
-0.311456 0.751920 1.700000
0.452163 0.676711 1.700000
0.000000 -0.813873 1.700000
-0.452164 0.676711 1.700000
0.311455 0.751921 1.700000
0.158779 -0.798234 1.700000
-0.575495 0.575495 1.700000
0.158778 0.798235 1.700000
0.311456 -0.751920 1.700000
-0.676711 0.452163 1.700000
0.452164 -0.676710 1.700000
-0.751920 0.311456 1.700000
0.575495 -0.575495 1.700000
-0.798235 0.158779 1.700000
0.676711 -0.452163 1.700000
-0.813873 0.000000 1.700000
0.751921 -0.311455 1.700000
-0.798235 -0.158779 1.700000
0.798235 -0.158778 1.700000
0.000000 -0.895260 1.800000
0.174657 -0.878058 1.800000
0.192123 -0.965864 1.900000
0.000000 -0.984786 1.900000
-0.174657 0.878058 1.800000
0.000000 0.895260 1.800000
0.633044 0.633045 1.800000
0.744381 0.497381 1.800000
-0.174656 -0.878058 1.800000
-0.342601 0.827112 1.800000
0.497379 0.744382 1.800000
-0.497380 0.744382 1.800000
0.342600 0.827113 1.800000
-0.633045 0.633045 1.800000
0.174655 0.878058 1.800000
0.342602 -0.827112 1.800000
-0.744382 0.497380 1.800000
0.497380 -0.744381 1.800000
-0.827113 0.342601 1.800000
0.633045 -0.633044 1.800000
-0.878058 0.174657 1.800000
0.744382 -0.497379 1.800000
-0.895260 0.000000 1.800000
0.827113 -0.342601 1.800000
-0.878058 -0.174657 1.800000
0.878058 -0.174656 1.800000
-0.827113 -0.342601 1.800000
0.895260 0.000001 1.800000
-0.744382 -0.497380 1.800000
0.878058 0.174657 1.800000
-0.633045 -0.633045 1.800000
0.827112 0.342602 1.800000
-0.696349 0.696349 1.900000
-0.547118 0.818820 1.900000
0.192121 0.965864 1.900000
0.376860 0.909824 1.900000
0.376862 -0.909824 1.900000
-0.818820 0.547118 1.900000
0.000000 0.984786 1.900000
0.547119 -0.818820 1.900000
-0.909824 0.376861 1.900000
0.696350 -0.696349 1.900000
-0.965864 0.192122 1.900000
0.818820 -0.547117 1.900000
-0.984786 -0.000000 1.900000
0.909824 -0.376861 1.900000
-0.965864 -0.192122 1.900000
0.965864 -0.192122 1.900000
-0.909824 -0.376861 1.900000
0.984786 0.000001 1.900000
-0.818820 -0.547118 1.900000
0.965864 0.192123 1.900000
-0.696349 -0.696349 1.900000
0.909824 0.376862 1.900000
-0.547118 -0.818820 1.900000
0.818819 0.547119 1.900000
-0.376861 -0.909824 1.900000
-0.192122 0.965864 1.900000
0.696348 0.696350 1.900000
-0.192122 -0.965864 1.900000
-0.376861 0.909824 1.900000
0.547117 0.818821 1.900000
32 0 1 2 3 4 5 6 7 8 9 10 11 12 13 14 15 16 17 18 19 20 21 22 23 24 25 26 27 28 29 30 31
4 32 33 34 35
4 11 10 36 37
4 24 23 38 39
4 10 9 40 36
4 23 22 41 38
4 9 8 42 40
4 22 21 43 41
4 8 7 44 42
4 21 20 45 43
4 7 6 46 44
4 20 19 47 45
4 6 5 48 46
4 19 18 49 47
4 0 31 50 51
4 5 4 52 48
4 18 17 53 49
4 31 30 32 50
4 4 3 54 52
4 17 16 55 53
4 30 29 33 32
4 3 2 56 54
4 16 15 57 55
4 29 28 58 33
4 2 1 59 56
4 15 14 60 57
4 28 27 61 58
4 1 0 51 59
4 14 13 62 60
4 27 26 63 61
4 13 12 64 62
4 26 25 65 63
4 12 11 37 64
4 25 24 39 65
4 66 67 68 69
4 54 56 70 71
4 55 57 72 73
4 33 58 74 34
4 56 59 75 70
4 57 60 76 72
4 58 61 66 74
4 59 51 77 75
4 60 62 78 76
4 61 63 67 66
4 62 64 79 78
4 63 65 80 67
4 64 37 81 79
4 65 39 82 80
4 37 36 83 81
4 39 38 84 82
4 36 40 85 83
4 38 41 86 84
4 40 42 87 85
4 41 43 88 86
4 42 44 89 87
4 43 45 90 88
4 44 46 91 89
4 45 47 92 90
4 46 48 93 91
4 47 49 94 92
4 51 50 95 77
4 48 52 96 93
4 49 53 97 94
4 50 32 35 95
4 52 54 71 96
4 53 55 73 97
4 98 99 100 101
4 78 79 102 103
4 67 80 104 68
4 79 81 105 102
4 80 82 98 104
4 81 83 106 105
4 82 84 99 98
4 83 85 107 106
4 84 86 108 99
4 85 87 109 107
4 86 88 110 108
4 87 89 111 109
4 88 90 112 110
4 89 91 113 111
4 90 92 114 112
4 91 93 115 113
4 92 94 116 114
4 77 95 117 118
4 93 96 119 115
4 94 97 120 116
4 95 35 121 117
4 96 71 122 119
4 97 73 123 120
4 35 34 124 121
4 71 70 125 122
4 73 72 126 123
4 34 74 127 124
4 70 75 128 125
4 72 76 129 126
4 74 66 69 127
4 75 77 118 128
4 76 78 103 129
4 130 131 132 133
4 106 107 134 135
4 99 108 136 100
4 107 109 137 134
4 108 110 130 136
4 109 111 138 137
4 110 112 131 130
4 111 113 139 138
4 112 114 140 131
4 113 115 141 139
4 114 116 142 140
4 118 117 143 144
4 115 119 145 141
4 116 120 146 142
4 117 121 147 143
4 119 122 148 145
4 120 123 149 146
4 121 124 150 147
4 122 125 151 148
4 123 126 152 149
4 124 127 153 150
4 125 128 154 151
4 126 129 155 152
4 127 69 156 153
4 128 118 144 154
4 129 103 157 155
4 69 68 158 156
4 103 102 159 157
4 68 104 160 158
4 102 105 161 159
4 104 98 101 160
4 105 106 135 161
4 162 163 164 165
4 138 139 166 167
4 131 140 168 132
4 139 141 169 166
4 140 142 162 168
4 144 143 170 171
4 141 145 172 169
4 142 146 163 162
4 143 147 173 170
4 145 148 174 172
4 146 149 175 163
4 147 150 176 173
4 148 151 177 174
4 149 152 178 175
4 150 153 179 176
4 151 154 180 177
4 152 155 181 178
4 153 156 182 179
4 154 144 171 180
4 155 157 183 181
4 156 158 184 182
4 157 159 185 183
4 158 160 186 184
4 159 161 187 185
4 160 101 188 186
4 161 135 189 187
4 101 100 190 188
4 135 134 191 189
4 100 136 192 190
4 134 137 193 191
4 136 130 133 192
4 137 138 167 193
4 194 195 196 197
4 170 173 198 199
4 172 174 200 201
4 163 175 202 164
4 173 176 203 198
4 174 177 204 200
4 175 178 194 202
4 176 179 205 203
4 177 180 206 204
4 178 181 195 194
4 179 182 207 205
4 180 171 208 206
4 181 183 209 195
4 182 184 210 207
4 183 185 211 209
4 184 186 212 210
4 185 187 213 211
4 186 188 214 212
4 187 189 215 213
4 188 190 216 214
4 189 191 217 215
4 190 192 218 216
4 191 193 219 217
4 192 133 220 218
4 193 167 221 219
4 133 132 222 220
4 167 166 223 221
4 132 168 224 222
4 166 169 225 223
4 168 162 165 224
4 171 170 199 208
4 169 172 201 225
4 226 227 228 229
4 205 207 230 231
4 206 208 232 233
4 195 209 234 196
4 207 210 235 230
4 209 211 226 234
4 210 212 236 235
4 211 213 227 226
4 212 214 237 236
4 213 215 238 227
4 214 216 239 237
4 215 217 240 238
4 216 218 241 239
4 217 219 242 240
4 218 220 243 241
4 219 221 244 242
4 220 222 245 243
4 221 223 246 244
4 222 224 247 245
4 223 225 248 246
4 224 165 249 247
4 208 199 250 232
4 225 201 251 248
4 165 164 252 249
4 199 198 253 250
4 201 200 254 251
4 164 202 255 252
4 198 203 256 253
4 200 204 257 254
4 202 194 197 255
4 203 205 231 256
4 204 206 233 257
4 258 259 260 261
4 236 237 262 263
4 227 238 264 228
4 237 239 265 262
4 238 240 258 264
4 239 241 266 265
4 240 242 259 258
4 241 243 267 266
4 242 244 268 259
4 243 245 269 267
4 244 246 270 268
4 245 247 271 269
4 246 248 272 270
4 247 249 273 271
4 232 250 274 275
4 248 251 276 272
4 249 252 277 273
4 250 253 278 274
4 251 254 279 276
4 252 255 280 277
4 253 256 281 278
4 254 257 282 279
4 255 197 283 280
4 256 231 284 281
4 257 233 285 282
4 197 196 286 283
4 231 230 287 284
4 233 232 275 285
4 196 234 288 286
4 230 235 289 287
4 234 226 229 288
4 235 236 263 289
4 290 291 292 293
4 266 267 294 295
4 259 268 296 260
4 267 269 297 294
4 268 270 290 296
4 269 271 298 297
4 270 272 291 290
4 271 273 299 298
4 275 274 300 301
4 272 276 302 291
4 273 277 303 299
4 274 278 304 300
4 276 279 305 302
4 277 280 306 303
4 278 281 307 304
4 279 282 308 305
4 280 283 309 306
4 281 284 310 307
4 282 285 311 308
4 283 286 312 309
4 284 287 313 310
4 285 275 301 311
4 286 288 314 312
4 287 289 315 313
4 288 229 316 314
4 289 263 317 315
4 229 228 318 316
4 263 262 319 317
4 228 264 320 318
4 262 265 321 319
4 264 258 261 320
4 265 266 295 321
4 322 323 324 325
4 298 299 326 327
4 301 300 328 329
4 291 302 330 292
4 299 303 331 326
4 300 304 332 328
4 302 305 322 330
4 303 306 333 331
4 304 307 334 332
4 305 308 323 322
4 306 309 335 333
4 307 310 336 334
4 308 311 337 323
4 309 312 338 335
4 310 313 339 336
4 311 301 329 337
4 312 314 340 338
4 313 315 341 339
4 314 316 342 340
4 315 317 343 341
4 316 318 344 342
4 317 319 345 343
4 318 320 346 344
4 319 321 347 345
4 320 261 348 346
4 321 295 349 347
4 261 260 350 348
4 295 294 351 349
4 260 296 352 350
4 294 297 353 351
4 296 290 293 352
4 297 298 327 353
4 354 355 356 357
4 333 335 358 359
4 334 336 360 361
4 323 337 362 324
4 335 338 363 358
4 336 339 364 360
4 337 329 365 362
4 338 340 354 363
4 339 341 366 364
4 340 342 355 354
4 341 343 367 366
4 342 344 368 355
4 343 345 369 367
4 344 346 370 368
4 345 347 371 369
4 346 348 372 370
4 347 349 373 371
4 348 350 374 372
4 349 351 375 373
4 350 352 376 374
4 351 353 377 375
4 352 293 378 376
4 353 327 379 377
4 293 292 380 378
4 327 326 381 379
4 329 328 382 365
4 292 330 383 380
4 326 331 384 381
4 328 332 385 382
4 330 322 325 383
4 331 333 359 384
4 332 334 361 385
4 386 387 388 389
4 366 367 390 391
4 355 368 392 356
4 367 369 393 390
4 368 370 386 392
4 369 371 394 393
4 370 372 387 386
4 371 373 395 394
4 372 374 396 387
4 373 375 397 395
4 374 376 398 396
4 375 377 399 397
4 376 378 400 398
4 377 379 401 399
4 378 380 402 400
4 379 381 403 401
4 365 382 404 405
4 380 383 406 402
4 381 384 407 403
4 382 385 408 404
4 383 325 409 406
4 384 359 410 407
4 385 361 411 408
4 325 324 412 409
4 359 358 413 410
4 361 360 414 411
4 324 362 415 412
4 358 363 416 413
4 360 364 417 414
4 362 365 405 415
4 363 354 357 416
4 364 366 391 417
4 418 419 420 421
4 394 395 422 423
4 387 396 424 388
4 395 397 425 422
4 396 398 418 424
4 397 399 426 425
4 398 400 419 418
4 399 401 427 426
4 400 402 428 419
4 401 403 429 427
4 405 404 430 431
4 402 406 432 428
4 403 407 433 429
4 404 408 434 430
4 406 409 435 432
4 407 410 436 433
4 408 411 437 434
4 409 412 438 435
4 410 413 439 436
4 411 414 440 437
4 412 415 441 438
4 413 416 442 439
4 414 417 443 440
4 415 405 431 441
4 416 357 444 442
4 417 391 445 443
4 357 356 446 444
4 391 390 447 445
4 356 392 448 446
4 390 393 449 447
4 392 386 389 448
4 393 394 423 449
4 450 451 452 453
4 426 427 454 455
4 419 428 456 420
4 427 429 457 454
4 431 430 450 458
4 428 432 459 456
4 429 433 460 457
4 430 434 451 450
4 432 435 461 459
4 433 436 462 460
4 434 437 463 451
4 435 438 464 461
4 436 439 465 462
4 437 440 466 463
4 438 441 467 464
4 439 442 468 465
4 440 443 469 466
4 441 431 458 467
4 442 444 470 468
4 443 445 471 469
4 444 446 472 470
4 445 447 473 471
4 446 448 474 472
4 447 449 475 473
4 448 389 476 474
4 449 423 477 475
4 389 388 478 476
4 423 422 479 477
4 388 424 480 478
4 422 425 481 479
4 424 418 421 480
4 425 426 455 481
4 482 483 484 485
4 459 461 486 487
4 460 462 488 489
4 451 463 490 452
4 461 464 491 486
4 462 465 492 488
4 463 466 482 490
4 464 467 493 491
4 465 468 494 492
4 466 469 483 482
4 467 458 495 493
4 468 470 496 494
4 469 471 497 483
4 470 472 498 496
4 471 473 499 497
4 472 474 500 498
4 473 475 501 499
4 474 476 502 500
4 475 477 503 501
4 476 478 504 502
4 477 479 505 503
4 478 480 506 504
4 479 481 507 505
4 480 421 508 506
4 481 455 509 507
4 421 420 510 508
4 455 454 511 509
4 420 456 512 510
4 454 457 513 511
4 458 450 453 495
4 456 459 487 512
4 457 460 489 513
4 514 515 516 517
4 493 495 518 519
4 494 496 520 521
4 483 497 522 484
4 496 498 523 520
4 497 499 514 522
4 498 500 524 523
4 499 501 515 514
4 500 502 525 524
4 501 503 526 515
4 502 504 527 525
4 503 505 528 526
4 504 506 529 527
4 505 507 530 528
4 506 508 531 529
4 507 509 532 530
4 508 510 533 531
4 509 511 534 532
4 510 512 535 533
4 511 513 536 534
4 495 453 537 518
4 512 487 538 535
4 513 489 539 536
4 453 452 540 537
4 487 486 541 538
4 489 488 542 539
4 452 490 543 540
4 486 491 544 541
4 488 492 545 542
4 490 482 485 543
4 491 493 519 544
4 492 494 521 545
4 546 547 548 549
4 524 525 550 551
4 515 526 552 516
4 525 527 553 550
4 526 528 546 552
4 527 529 554 553
4 528 530 547 546
4 529 531 555 554
4 530 532 556 547
4 531 533 557 555
4 532 534 558 556
4 533 535 559 557
4 534 536 560 558
4 518 537 561 562
4 535 538 563 559
4 536 539 564 560
4 537 540 565 561
4 538 541 566 563
4 539 542 567 564
4 540 543 568 565
4 541 544 569 566
4 542 545 570 567
4 543 485 571 568
4 544 519 572 569
4 545 521 573 570
4 485 484 574 571
4 519 518 562 572
4 521 520 575 573
4 484 522 576 574
4 520 523 577 575
4 522 514 517 576
4 523 524 551 577
4 578 579 580 581
4 554 555 582 583
4 547 556 584 548
4 555 557 585 582
4 556 558 578 584
4 557 559 586 585
4 558 560 579 578
4 562 561 587 588
4 559 563 589 586
4 560 564 590 579
4 561 565 591 587
4 563 566 592 589
4 564 567 593 590
4 565 568 594 591
4 566 569 595 592
4 567 570 596 593
4 568 571 597 594
4 569 572 598 595
4 570 573 599 596
4 571 574 600 597
4 572 562 588 598
4 573 575 601 599
4 574 576 602 600
4 575 577 603 601
4 576 517 604 602
4 577 551 605 603
4 517 516 606 604
4 551 550 607 605
4 516 552 608 606
4 550 553 609 607
4 552 546 549 608
4 553 554 583 609
4 610 611 612 613
4 588 587 614 615
4 586 589 616 617
4 579 590 618 580
4 587 591 619 614
4 589 592 620 616
4 590 593 610 618
4 591 594 621 619
4 592 595 622 620
4 593 596 611 610
4 594 597 623 621
4 595 598 624 622
4 596 599 625 611
4 597 600 626 623
4 598 588 615 624
4 599 601 627 625
4 600 602 628 626
4 601 603 629 627
4 602 604 630 628
4 603 605 631 629
4 604 606 632 630
4 605 607 633 631
4 606 608 634 632
4 607 609 635 633
4 608 549 636 634
4 609 583 637 635
4 549 548 638 636
4 583 582 639 637
4 548 584 640 638
4 582 585 641 639
4 584 578 581 640
4 585 586 617 641
4 621 623 642 643
4 622 624 644 645
4 611 625 646 612
4 623 626 647 642
4 624 615 648 644
4 625 627 649 646
4 626 628 650 647
4 627 629 651 649
4 628 630 652 650
4 629 631 653 651
4 630 632 654 652
4 631 633 655 653
4 632 634 656 654
4 633 635 657 655
4 634 636 658 656
4 635 637 659 657
4 636 638 660 658
4 637 639 661 659
4 638 640 662 660
4 639 641 663 661
4 640 581 664 662
4 641 617 665 663
4 581 580 666 664
4 615 614 667 648
4 617 616 668 665
4 580 618 669 666
4 614 619 670 667
4 616 620 671 668
4 618 610 613 669
4 619 621 643 670
4 620 622 645 671
